<svg version="1.2" xmlns="http://www.w3.org/2000/svg" viewBox="0 0 426 100" width="426" height="100" fill="#1c3282">
	<title>emapta-outsourcing-reimagined-svg</title>
	<g id="Emapta">
		<g id="Layer">
			<g id="Layer">
				<path id="Layer" fill-rule="evenodd" class="s0" d="m424.7 84.7h-12.2l-12.6-19.2-40.9 0.3-11.8 18.8h-22.1l-0.1-58.8-27.2-0.1c0 0 12.4 31.4-19 33l-19.8-0.1v26h-22.8l-11.7-18.7-42-0.1-12 18.8h-12.6l-16.6-43.1-23.3 45.4-22.8-46.4-16.5 44.2h-43.2c0 0-34.3 0.7-34.3-33.9 0-35.5 34-36.2 34-36.2h40.8l-5.4 12h-35.2c0 0-19.9-1.1-22.1 15.8h51.2l-4.9 12.3-46.3-0.6c0 0 0.1 18.1 19 18.8h38.5l23.2-58.3 24.4 48 24.4-48 22.7 58.4 38.4-58.4 42.9 67.5v-67.5h32.6c0 0 14 0.2 17.6 9.3 0 0 0.1 0.2 0.3 0.5l-0.1-0.1c1.4 0.6 5.5-9.8 5.5-9.8h62.8l-7 11.4h-21.7l-0.2 54.7 43.3-66zm-127-59.1c-0.1-0.4-0.3-0.8-0.4-1.2zm-80 31l-14.6-23.2-14.8 23.1zm62.7-29.2c-1.2 0-15.1 0.1-19.8 0.1-0.5 0-1.6 0.3-1.6 1.7v27.8c0 1.1 0.4 0.6 0.7 0.2l6.3-11.3h13.2c0 0 9.2 1.3 9.6-9.4 0.3-8.1-6.9-9.2-8.4-9.1zm112.9 29.1l-14.1-22.6-14.3 22.6z"/>
			</g>
		</g>
	</g>
	<g id="Reimagined">
		<g id="Layer">
		</g>
	</g>
	<g id="Outsourcing">
		<g id="Layer">
		</g>
	</g>
	<g id="Offshoring">
	</g>
</svg>