<svg width="630" height="631" viewBox="0 0 630 631" fill="none" xmlns="http://www.w3.org/2000/svg"><path opacity="0.1" fill-rule="evenodd" clip-rule="evenodd" d="M629.006 -20L578.001 68.8137H306.595C267.902 68.8137 235.555 71.2818 209.965 78.2879C184.371 85.3035 162.739 96.1172 145.074 110.743C117.04 134.515 95.8712 162.788 81.5545 195.543C72.6801 215.846 66.5571 237.524 63.1831 260.575H423.457L376.666 349.515H62.9565C66.2236 373.818 72.2711 396.095 81.1002 416.346C95.1079 448.506 116.126 475.547 144.161 497.488C163.961 513.032 185.973 524.084 210.19 530.632C234.412 537.188 273.606 541.614 315.952 541.614H624.791L578.001 630.554H311.274C249.731 630.554 200.744 624.349 166.781 613.835C132.808 603.321 100.896 585.721 71.0452 561.031C34.4875 531.17 6.84214 495.282 -11.8957 453.376C-30.6334 411.475 -40 364.769 -40 313.262C-40 273.337 -34.5955 235.852 -23.7771 200.802C-12.9681 165.758 3.10488 133.602 24.4325 104.346C39.3581 83.9313 56.4193 65.6431 75.6161 49.4858C94.8081 33.3378 115.827 19.4707 138.676 7.88424C158.782 -2.17076 180.409 -9.32681 203.568 -13.598C226.713 -17.8644 260.99 -20 306.385 -20H629.006Z" fill="#040426"></path></svg>